<?xml version="1.0" encoding="UTF-8"?>
<svg id="Layer_1" xmlns="http://www.w3.org/2000/svg" version="1.1" viewBox="0 0 1080 1080">
  <!-- Generator: Adobe Illustrator 30.1.0, SVG Export Plug-In . SVG Version: 2.1.1 Build 136)  -->
  <defs>
    <style>
      .st0, .st1 {
        fill: #243e28;
      }

      .st1 {
        font-family: Badrock, Badrock;
        font-size: 298.04px;
      }
    </style>
  </defs>
  <g>
    <path class="st0" d="M371.45,376.66H103.04c-15.68,0-28.4,12.72-28.4,28.4v268.4c0,15.69,12.72,28.4,28.4,28.4h84.19c1.53-1.71,3.05-3.47,4.55-5.29,18.74-22.77,29.05-48.15,34.59-71.83-9.04,3.41-18.09,6.81-27.13,10.22v-10.43l25.95-22,2.17-2.39c-1.17-9.31-3.36-18.69-3.86-28.08-.3-5.58-.8-21.21.68-25.82,3.58-11.16,15.96-23.47,25.86-29.41,10.65-6.39,21.85-9.5,33.13-9.99v-3.22c0-4,3.24-7.24,7.24-7.24,2,0,3.81.81,5.12,2.12,1.32,1.31,2.12,3.12,2.12,5.12v3.98c11.45,1.67,22.75,5.77,33.4,11.62,7.2,3.96,17.94,10.14,20.93,18,.29.76,2.29,6.33.41,5.79-2.89-.85-12.15-12.13-15.8-14.1-.95.6.23,1.23.57,1.69,2.37,3.09,4.68,6.22,7.04,9.32-1.34.21-5.21-.55-6.17-1.17-1.92-1.24-7.22-8.55-9.89-10.98-.99-.91-5.4-4.73-6.23-5.06-.71-.28-1.05.11-.83.83l8.45,12.42c-1.84.41-7.57-.73-8.98-1.74-2.36-1.67-7.12-7.89-9.9-10.41-1.66-1.52-3.68-2.67-5.09-4.49-.88.49.19,1.27.5,1.75,1.5,2.27,6.48,8.94,7.11,10.94.26.86-.04.91-.81.81-1.47-.18-8.32-1.51-9.33-1.96-1.57-.7-7.35-6.55-9.33-8.16-.75-.61-6.02-4.96-6.47-4.52l6.77,11.27c-2.08-.29-4.43-.96-6.5-1.12-.61-.04-1.54-.34-1.39.55,22.43,14.59,33.1,42.94,31.61,69.14-.07,1.16-.57,8.16-1.72,7.32-.85-1.92-3.73-4.69-4.25-6.47-.98-3.35-.34-8.9-1.57-12.54l-2.07-7.23v14.11c-1.13.28-1.09-.47-1.59-.95-4.55-4.45-2.41-7.38-2.93-12.87-.48-5.06-1.57-10.05-2.83-14.95l-1.06,4.86-1.2,12.62-5.49-6.63-2.41-21.57-1.76,12.61-1.05,3.46c-1.05-1.67-6.88-6.8-7.22-8.01-.58-2.02-.41-6.43-.75-8.84-.43-3.13-.95-6.29-1.63-9.37l-2.09,9.45-.16,2.95c-.51.61-5.02-3.93-5.32-4.54-1.59-3.29-2.76-15.16-3.89-19.81-.16-.68-.04-2.24-.94-2.16v13.82c0,.26-.71,1.93-.84,2.53l-15.51-14.66c.27,23.24.44,46.21-3.97,69.09l.6,1.13,27.06,22.57v10.43l-28.35-9.89c1.49,12.33,3.34,45.19-13.69,77.35h140.36c15.69,0,28.4-12.71,28.4-28.4v-268.4c0-15.69-12.71-28.4-28.4-28.4ZM356.05,474.77c-2.37-.12-6.06,1.82-8.15,1.67-2.14-.15-8.16-2.47-11.02-3.09-2.97-.62-6-1.25-9.03-1.39l12.41,5.64c.18,1.48-.03.9-.83,1.13-1.09.33-3.63,1.15-4.54,1.15-2.66-.02-13.4-4.59-17.73-5.41-2.54-.48-5.33-.81-7.92-.81l14.87,7.97c.63.41,1.34.76.36,1.34-.45.27-7.45,2.29-7.97,2.24l-21.38-5.91,14.11,7.9c.59.77-9.46,4.35-10.33,4.35-.92,0-13.35-2.8-13.93-3.23.31,1.7-.86,1.09-1.95,1.13-47.29,1.74-79.69,44.84-73.65,90.81-.94-.5-1.17-2.89-1.41-3.93-6.13-26.2.89-52.97,20.59-71.37-.59-.94-1.23.25-1.69.57-8.34,5.84-16.19,14.59-20.35,23.96l-1.08-.55c-1.27,5.36-3.4,10.47-4.81,15.79-1.05,3.95-.29,9.15-4.22,11.28l-2.83-12.4c-1.61,5.19-.76,13.43-2.39,18.19-.67,1.94-6.15,5.66-6.65,8.31-.78-.1-.97-.76-1.09-1.43-.79-4.35-.64-9.13-1.16-13.52-.11-1.03.18-.91-1.12-.83l-1.84,20.45c-1.73,2.56-3.57,5.34-6.06,7.19l-1.69-17.48c-1.19,3.97-2.23,8.08-2.76,12.2-.79,6.25.65,10.75-3.3,15.85-.36.48,0,1.03-1.28.71-.18-3.87-.43-7.69-.57-11.56-.03-.68.43-2.1-.56-1.97-.67,3.53-1.48,7.05-2.1,10.59-.46,2.62-.3,6.57-.86,8.73-.48,1.87-3.7,4.24-3.82,6.62-1.2,1.18-1.56-3.18-1.62-3.73-2.73-26.97,6.21-51.43,26.14-69.61.97-.88,4.52-3.03,4.81-3.38.05-.07.21-1.18-.27-1.1l-7.62,1.67,6.2-11.84-15.02,12.91c-3.13.69-6.99,1.97-10.1,2.31-1.4.16-.68-.2-.35-.91,1.9-4.07,5.36-8.63,7.98-12.33l-.84-.28c-4.51,4.32-8.73,8.96-13.29,13.23-.57.53-.93,1.64-1.25,1.84-.43.28-9.1,2.27-8.87,1.57l9.58-14.11c.09-.41-.6-.38-.83-.27-.83.38-5.21,4.15-6.23,5.06-2.4,2.13-5.09,4.98-7.32,7.34-3.18,3.37-3.79,6.55-9.86,5.94,2.33-3.3,4.73-6.57,7.05-9.87.32-.46,1.51-1.1.56-1.69l-15.24,14.1c-.22-4.27,2.86-8.58,6.31-11.18,8.26-6.21,22.97-12.95,32.52-18.25,1-.55,5.76-2.54,5.93-2.81.39-.62-.03-6.48.34-8.4,1.48-7.66,12.51-7.02,13.57.59,5.27-2.59,4.55-2.61,4.8-7.89l-2.83-.57,2.83-2.81c.11-1.22.26-1.9,1.12-2.82-.09,0-.63-.74-1.79-.48-2.92.65-7.53,2.78-10.33,2.79-.86,0-10.05-2.5-10.44-2.88-.25-.24-.14-1.41.74-1.25l13.36-7.76c-3.43.57-6.82,1.54-10.15,2.53-2.71.81-8.29,3.35-10.57,3.55-2.79.24-6.23-2.36-9.17-2.14,4.21-4.4,11.2-5.69,15.79-9.58-4.23.34-8.45,1.32-12.53,2.41-2.46.66-11.43,4.28-12.57,4.3-1.3.02-4.48-1.47-5.93-1.92l12.4-6.48c-3.41.57-6.88,1.09-10.27,1.85-6.42,1.45-10.56,4.11-17.37.96,23.19-15.44,54.31-17.53,79.73-6.12,7.02,3.15,12.55,7.35,18.69,11.78.65.47,1.03,1.07,1.83,1.16.23-.03.47-.04.71-.04,2.24-1.3,4.52-2.54,6.79-3.76,1.15-19.02-2.48-40.71,2.16-59.21,1.88-7.47,8.19-21.19,16.66-10.88,11.48,13.98,5.46,51.57,7.11,69.04.36,1.87,4.97,3.7,6.76,4.8,5.46-3.2,10.18-7.42,15.78-10.44,22.72-12.29,49.65-12.25,73.16-2.06.95.41,11.7,5.51,10.9,6.3Z"/>
    <text class="st1" transform="translate(451.91 642.24)"><tspan x="0" y="0">NAKHLA</tspan></text>
  </g>
  <rect class="st0" x="-2919.5" y="-480.09" width="2040" height="2040.89"/>
</svg>