<?xml version="1.0" encoding="UTF-8"?>
<svg id="Layer_1" xmlns="http://www.w3.org/2000/svg" version="1.1" viewBox="0 0 128 128">
  <!-- Generator: Adobe Illustrator 30.1.0, SVG Export Plug-In . SVG Version: 2.1.1 Build 136)  -->
  <defs>
    <style>
      .st0 {
        fill: #243e28;
      }
    </style>
  </defs>
  <path class="st0" d="M67,97.5l11.2,3.9v-4.1l-10.7-8.9-.2-.4c1.7-9,1.7-18.1,1.6-27.2l6.1,5.8c0-.2.3-.9.3-1v-5.4c.4,0,.3.6.4.9.4,1.8.9,6.5,1.5,7.8.1.2,1.9,2,2.1,1.8v-1.2c0,0,.9-3.7.9-3.7.3,1.2.5,2.5.6,3.7.1.9,0,2.7.3,3.5.1.5,2.4,2.5,2.8,3.1l.4-1.4.7-5,1,8.5,2.2,2.6.5-5,.4-1.9c.5,1.9.9,3.9,1.1,5.9.2,2.2-.6,3.3,1.2,5.1.2.2.2.5.6.4v-5.5l.8,2.8c.5,1.4.2,3.6.6,4.9.2.7,1.3,1.8,1.7,2.5.5.3.7-2.4.7-2.9.6-10.3-3.6-21.5-12.4-27.2,0-.3.3-.2.6-.2.8,0,1.7.3,2.6.4l-2.7-4.4c.2-.2,2.3,1.5,2.5,1.8.8.6,3.1,2.9,3.7,3.2.4.2,3.1.7,3.7.8.3,0,.4,0,.3-.3-.2-.8-2.2-3.4-2.8-4.3-.1-.2-.6-.5-.2-.7.5.7,1.3,1.2,2,1.8,1.1,1,3,3.4,3.9,4.1.6.4,2.8.9,3.5.7l-3.3-4.9c0-.3,0-.4.3-.3.3.1,2.1,1.6,2.5,2,1,1,3.1,3.8,3.9,4.3.4.2,1.9.5,2.4.5-.9-1.2-1.8-2.5-2.8-3.7-.1-.2-.6-.4-.2-.7,1.4.8,5.1,5.2,6.2,5.5.7.2,0-2-.2-2.3-1.2-3.1-5.4-5.5-8.2-7.1-4.2-2.3-8.6-3.9-13.1-4.6v-1.6c0-.8-.3-1.5-.8-2-.5-.5-1.2-.8-2-.8-1.6,0-2.8,1.3-2.8,2.8v1.3c-4.4.2-8.9,1.4-13,3.9-3.9,2.3-8.8,7.2-10.2,11.6-.6,1.8-.4,8-.3,10.2.2,3.7,1.1,7.4,1.5,11l-.8.9-10.2,8.7v4.1c3.6-1.3,7.1-2.7,10.7-4-2.2,9.3-6.2,19.3-13.6,28.3-.6.7-1.2,1.4-1.8,2.1h66.5s-49.2,0-49.2,0c6.7-12.7,6-25.6,5.4-30.4Z"/>
  <path class="st0" d="M45.9,72.9c.6-1.9.3-5.1.9-7.2l1.1,4.9c1.5-.8,1.2-2.9,1.7-4.4.6-2.1,1.4-4.1,1.9-6.2l.4.2c1.6-3.7,4.7-7.1,8-9.4.2-.1.4-.6.7-.2-7.8,7.2-10.5,17.8-8.1,28.1.1.4.2,1.4.6,1.5-2.4-18.1,10.4-35.1,29-35.7.4,0,.9.2.8-.4.2.2,5.1,1.3,5.5,1.3s4.3-1.4,4.1-1.7l-5.5-3.1,8.4,2.3c.2,0,3-.8,3.1-.9.4-.2.1-.4-.1-.5l-5.8-3.1c1,0,2.1.1,3.1.3,1.7.3,5.9,2.1,7,2.1s1.4-.3,1.8-.5c.3,0,.4.1.3-.4l-4.9-2.2c1.2,0,2.4.3,3.6.5,1.1.2,3.5,1.2,4.3,1.2.8,0,2.3-.7,3.2-.7,0-.4-4-2.3-4.3-2.5-9.2-4-19.8-4-28.8.8-2.2,1.2-4.1,2.8-6.2,4.1-.7-.4-2.5-1.1-2.7-1.9-.7-6.9,1.7-21.7-2.8-27.2-3.3-4.1-5.8,1.3-6.5,4.3-1.8,7.3-.4,15.8-.8,23.3-.9.5-1.8,1-2.7,1.5,0,0-.2,0-.3,0-.3,0-.5-.3-.7-.5-2.4-1.7-4.6-3.4-7.4-4.6-10-4.5-22.3-3.7-31.4,2.4,2.7,1.2,4.3.2,6.8-.4,1.3-.3,2.7-.5,4-.7l-4.9,2.5c.6.2,1.8.8,2.3.8.5,0,4-1.4,5-1.7,1.6-.4,3.3-.8,4.9-.9-1.8,1.5-4.6,2-6.2,3.8,1.2,0,2.5.9,3.6.8.9,0,3.1-1.1,4.2-1.4,1.3-.4,2.7-.8,4-1l-5.3,3.1c-.3,0-.4.4-.3.5.2.1,3.8,1.1,4.1,1.1,1.1,0,2.9-.9,4.1-1.1.5-.1.7.2.7.2-.3.4-.4.6-.4,1.1l-1.1,1.1,1.1.2c0,2.1.2,2.1-1.9,3.1-.4-3-4.8-3.2-5.3-.2-.2.8,0,3.1-.1,3.3,0,.1-1.9.9-2.3,1.1-3.8,2.1-9.5,4.7-12.8,7.2-1.4,1-2.6,2.7-2.5,4.4l6-5.5c.4.2,0,.5-.2.7-.9,1.3-1.8,2.6-2.8,3.9,2.4.2,2.6-1,3.9-2.3.9-.9,1.9-2.1,2.9-2.9.4-.4,2.1-1.8,2.4-2,0,0,.4,0,.3,0l-3.8,5.6c0,.3,3.3-.5,3.5-.6.1,0,.3-.5.5-.7,1.8-1.7,3.5-3.5,5.2-5.2h.3c-1,1.6-2.4,3.4-3.1,5-.1.3-.4.4.1.4,1.2-.1,2.7-.6,4-.9l5.9-5.1-2.4,4.7,3-.7c.2,0,.1.4,0,.4-.1.1-1.5,1-1.9,1.3-7.8,7.2-11.4,16.8-10.3,27.4,0,.2.2,1.9.6,1.5,0-.9,1.3-1.9,1.5-2.6.2-.8.2-2.4.3-3.4.2-1.4.6-2.8.8-4.2.4,0,.2.5.2.8,0,1.5.2,3,.2,4.6.5.1.4,0,.5-.3,1.5-2,1-3.8,1.3-6.2.2-1.6.6-3.2,1.1-4.8l.7,6.9c1-.7,1.7-1.8,2.4-2.8l.7-8c.5,0,.4,0,.4.3.2,1.7.1,3.6.5,5.3,0,.3.1.5.4.6.2-1,2.4-2.5,2.6-3.3Z"/>
  <path class="st0" d="M110.8,38.6h0s0,0,0,0h0Z"/>
</svg>