<svg width="2405" height="471" viewBox="0 0 2405 471" fill="none" xmlns="http://www.w3.org/2000/svg">
<path d="M428.956 0.0434444H41.0442C18.3832 0.0434444 0 18.4646 0 41.1725V429.871C0 452.593 18.3832 471 41.0442 471H162.717C164.928 468.524 167.125 465.975 169.293 463.339C196.376 430.363 211.277 393.608 219.283 359.314C206.218 364.253 193.139 369.177 180.074 374.115V359.01L217.578 327.15L220.714 323.689C219.023 310.206 215.858 296.622 215.135 283.023C214.702 274.942 213.979 252.306 216.118 245.63C221.292 229.468 239.184 211.641 253.492 203.038C268.883 193.784 285.07 189.281 301.372 188.571V183.908C301.372 178.115 306.054 173.423 311.835 173.423C314.726 173.423 317.341 174.596 319.235 176.493C321.142 178.39 322.298 181.011 322.298 183.908V189.672C338.846 192.09 355.177 198.028 370.569 206.5C380.974 212.235 396.496 221.184 400.817 232.567C401.236 233.668 404.127 241.735 401.41 240.953C397.233 239.722 383.85 223.386 378.575 220.533C377.202 221.402 378.908 222.314 379.399 222.98C382.824 227.455 386.163 231.988 389.573 236.478C387.637 236.782 382.044 235.681 380.656 234.783C377.882 232.987 370.222 222.401 366.363 218.882C364.932 217.564 358.559 212.032 357.36 211.554C356.333 211.148 355.842 211.713 356.16 212.756L368.372 230.743C365.713 231.336 357.432 229.685 355.394 228.223C351.983 225.804 345.104 216.796 341.086 213.147C338.687 210.946 335.768 209.28 333.73 206.645C332.458 207.354 334.005 208.484 334.453 209.179C336.621 212.466 343.818 222.126 344.728 225.022C345.104 226.268 344.67 226.34 343.558 226.195C341.433 225.935 331.533 224.008 330.074 223.357C327.805 222.343 319.451 213.871 316.59 211.539C315.506 210.656 307.89 204.356 307.239 204.994L317.023 221.315C314.017 220.895 310.621 219.925 307.63 219.693C306.748 219.635 305.404 219.2 305.621 220.489C338.037 241.619 353.457 282.675 351.304 320.618C351.203 322.298 350.48 332.436 348.818 331.219C347.59 328.439 343.428 324.427 342.676 321.849C341.26 316.998 342.185 308.96 340.407 303.689L337.415 293.218V313.652C335.782 314.058 335.84 312.972 335.118 312.277C328.542 305.832 331.635 301.589 330.883 293.638C330.189 286.31 328.614 279.084 326.793 271.988L325.261 279.026L323.527 297.302L315.593 287.701L312.11 256.463L309.566 274.725L308.049 279.735C306.531 277.317 298.106 269.888 297.614 268.135C296.776 265.21 297.022 258.823 296.53 255.333C295.909 250.8 295.157 246.224 294.175 241.764L291.154 255.449L290.923 259.721C290.186 260.605 283.668 254.03 283.234 253.146C280.936 248.382 279.245 231.192 277.612 224.457C277.381 223.473 277.554 221.213 276.254 221.329V241.344C276.254 241.72 275.228 244.139 275.04 245.007L252.624 223.777C253.015 257.433 253.26 290.698 246.887 323.833L247.754 325.47L286.862 358.156V373.261L245.89 358.938C248.043 376.794 250.717 424.382 226.105 470.957H428.956C451.631 470.957 470 452.55 470 429.828V41.129C470 18.4067 451.631 0 428.956 0V0.0434444ZM406.699 142.127C403.274 141.953 397.941 144.763 394.921 144.545C391.828 144.328 383.128 140.968 378.994 140.07C374.702 139.173 370.323 138.26 365.944 138.057L383.879 146.225C384.139 148.369 383.836 147.529 382.68 147.862C381.104 148.34 377.434 149.527 376.118 149.527C372.274 149.498 356.753 142.88 350.495 141.692C346.824 140.997 342.792 140.519 339.049 140.519L360.539 152.062C361.449 152.655 362.476 153.162 361.059 154.002C360.409 154.393 350.292 157.319 349.541 157.246L318.642 148.687L339.034 160.128C339.887 161.243 325.362 166.428 324.105 166.428C322.775 166.428 304.811 162.373 303.973 161.75C304.421 164.212 302.73 163.329 301.155 163.387C232.81 165.906 185.985 228.324 194.714 294.898C193.356 294.174 193.024 290.713 192.677 289.207C183.818 251.264 193.963 212.495 222.434 185.848C221.581 184.487 220.656 186.21 219.991 186.674C207.938 195.131 196.593 207.803 190.581 221.373L189.02 220.576C187.185 228.339 184.107 235.739 182.069 243.443C180.551 249.164 181.65 256.695 175.97 259.779L171.88 241.821C169.553 249.338 170.782 261.271 168.426 268.164C167.458 270.974 159.538 276.361 158.815 280.199C157.688 280.054 157.413 279.098 157.24 278.128C156.098 271.828 156.315 264.906 155.563 258.548C155.404 257.057 155.824 257.23 153.945 257.346L151.286 286.962C148.785 290.669 146.126 294.695 142.528 297.375L140.085 272.06C138.365 277.809 136.862 283.761 136.096 289.728C134.955 298.779 137.036 305.296 131.327 312.682C130.807 313.377 131.327 314.174 129.477 313.71C129.217 308.106 128.856 302.574 128.653 296.969C128.61 295.984 129.275 293.928 127.844 294.116C126.876 299.228 125.705 304.326 124.809 309.453C124.144 313.247 124.376 318.967 123.566 322.095C122.873 324.804 118.219 328.236 118.046 331.683C116.311 333.391 115.791 327.077 115.704 326.281C111.759 287.223 124.679 251.8 153.482 225.471C154.884 224.197 160.015 221.083 160.434 220.576C160.506 220.475 160.737 218.867 160.044 218.983L149.031 221.402L157.991 204.255L136.284 222.951C131.761 223.951 126.182 225.804 121.688 226.297C119.664 226.528 120.705 226.007 121.182 224.979C123.928 219.085 128.928 212.481 132.715 207.122L131.501 206.717C124.983 212.973 118.884 219.693 112.294 225.877C111.47 226.644 110.95 228.252 110.487 228.541C109.866 228.947 97.3356 231.829 97.668 230.815L111.513 210.381C111.643 209.787 110.646 209.831 110.314 209.99C109.114 210.54 102.784 216 101.31 217.318C97.8414 220.402 93.9537 224.53 90.7309 227.948C86.1351 232.828 85.2535 237.433 76.481 236.55C79.8484 231.771 83.3169 227.035 86.6698 222.256C87.1323 221.59 88.8521 220.663 87.4792 219.809L65.454 240.228C65.1361 234.045 69.5873 227.803 74.5733 224.037C86.5109 215.044 107.77 205.283 121.572 197.608C123.017 196.811 129.896 193.929 130.142 193.538C130.706 192.64 130.099 184.154 130.633 181.373C132.772 170.28 148.713 171.207 150.245 182.228C157.861 178.477 156.821 178.448 157.182 170.801L153.092 169.976L157.182 165.906C157.341 164.14 157.558 163.155 158.801 161.823C158.671 161.823 157.89 160.751 156.214 161.127C151.994 162.069 145.331 165.153 141.285 165.168C140.042 165.168 126.76 161.547 126.197 160.997C125.835 160.649 125.994 158.955 127.266 159.187L146.574 147.949C141.617 148.774 136.718 150.179 131.905 151.613C127.989 152.786 119.924 156.464 116.629 156.754C112.597 157.101 107.626 153.336 103.377 153.655C109.461 147.283 119.563 145.414 126.197 139.781C120.083 140.273 113.984 141.692 108.088 143.271C104.533 144.227 91.5691 149.469 89.9216 149.498C88.0428 149.527 83.447 147.369 81.3514 146.718L99.2722 137.333C94.344 138.159 89.329 138.912 84.4297 140.013C75.1514 142.112 69.1682 145.965 59.3263 141.403C92.8409 119.043 137.816 116.016 174.554 132.54C184.699 137.102 192.691 143.184 201.565 149.6C202.504 150.28 203.053 151.149 204.21 151.28C204.542 151.236 204.889 151.222 205.236 151.222C208.473 149.339 211.768 147.543 215.049 145.776C216.711 118.232 211.465 86.8199 218.17 60.0281C220.887 49.21 230.007 29.3407 242.248 44.2717C258.839 64.5176 250.139 118.956 252.523 144.256C253.044 146.964 259.706 149.614 262.293 151.207C270.184 146.573 277.005 140.461 285.099 136.088C317.934 118.289 356.854 118.347 390.831 133.105C392.204 133.698 407.74 141.084 406.584 142.228L406.699 142.127Z" fill="#F3F4E1"/>
<path d="M866.225 72.8312V398H828.119L650.927 142.692H647.752V398H608.376V72.8312H646.482L824.308 328.775H827.484V72.8312H866.225ZM958.353 398H917.072L1036.47 72.8312H1077.12L1196.51 398H1155.23L1058.06 124.274H1055.52L958.353 398ZM973.595 270.981H1139.99V305.911H973.595V270.981ZM1247.16 398V72.8312H1286.54V234.145H1290.35L1436.42 72.8312H1487.86L1351.32 219.538L1487.86 398H1440.23L1327.18 246.847L1286.54 292.574V398H1247.16ZM1538.83 398V72.8312H1578.21V217.633H1751.59V72.8312H1790.96V398H1751.59V252.563H1578.21V398H1538.83ZM1869.79 398V72.8312H1909.17V363.07H2060.32V398H1869.79ZM2155.15 398H2113.87L2233.27 72.8312H2273.91L2393.31 398H2352.03L2254.86 124.274H2252.32L2155.15 398ZM2170.39 270.981H2336.79V305.911H2170.39V270.981Z" fill="#F3F4E1"/>
</svg>
