<svg width="11" height="7" viewBox="0 0 11 7" fill="none" xmlns="http://www.w3.org/2000/svg">
<path d="M10.2419 0.290792C10.0545 0.104542 9.80108 0 9.53689 0C9.27271 0 9.01925 0.104542 8.83189 0.290792L5.24189 3.83079L1.70189 0.290792C1.51453 0.104542 1.26108 0 0.996892 0C0.732706 0 0.479254 0.104542 0.291892 0.290792C0.198164 0.383756 0.123769 0.494357 0.0730004 0.616216C0.0222318 0.738075 -0.00390625 0.868781 -0.00390625 1.00079C-0.00390625 1.1328 0.0222318 1.26351 0.0730004 1.38537C0.123769 1.50723 0.198164 1.61783 0.291892 1.71079L4.53189 5.95079C4.62486 6.04452 4.73546 6.11892 4.85732 6.16968C4.97917 6.22045 5.10988 6.24659 5.24189 6.24659C5.3739 6.24659 5.50461 6.22045 5.62647 6.16968C5.74833 6.11892 5.85893 6.04452 5.95189 5.95079L10.2419 1.71079C10.3356 1.61783 10.41 1.50723 10.4608 1.38537C10.5116 1.26351 10.5377 1.1328 10.5377 1.00079C10.5377 0.868781 10.5116 0.738075 10.4608 0.616216C10.41 0.494357 10.3356 0.383756 10.2419 0.290792Z" fill="white"/>
</svg>
